<svg width="39" height="38" viewBox="0 0 39 38" fill="none" xmlns="http://www.w3.org/2000/svg">
<path d="M19.4225 2.30001e-05C19.2122 0.0123926 19.062 0.0580433 18.9474 0.131968L1.21401 11.9542C0.905059 12.1507 0.75103 12.5671 0.857642 12.9173C0.964555 13.2675 1.32299 13.5205 1.68874 13.511H4.22224V29.5555H1.68874C1.24667 29.5555 0.844372 29.9578 0.844372 30.3999V32.9334C0.402297 32.9334 0 33.3357 0 33.7778V37.1556C0 37.5977 0.402312 38 0.844372 38H38.0001C38.4421 38 38.8444 37.5977 38.8444 37.1556V33.7778C38.8444 33.3357 38.4421 32.9334 38.0001 32.9334V30.3999C38.0001 29.9578 37.5977 29.5555 37.1557 29.5555H34.6222V13.511H37.1557C37.5218 13.5207 37.8802 13.2675 37.9868 12.9173C38.0937 12.5671 37.9397 12.1503 37.6304 11.9542L19.897 0.131968C19.7312 0.0232905 19.6031 -0.000859146 19.422 2.30001e-05H19.4225ZM19.4225 1.86052L34.3586 11.822H4.48631L19.4225 1.86052ZM19.4225 4.64463C17.8002 4.64463 16.467 5.97796 16.467 7.60012C16.467 9.22229 17.8003 10.5556 19.4225 10.5556C21.0446 10.5556 22.378 9.22229 22.378 7.60012C22.378 5.97796 21.0446 4.64463 19.4225 4.64463ZM19.4225 6.33338C20.132 6.33338 20.6892 6.89061 20.6892 7.60012C20.6892 8.30963 20.132 8.86687 19.4225 8.86687C18.713 8.86687 18.1557 8.30964 18.1557 7.60012C18.1557 6.89062 18.713 6.33338 19.4225 6.33338ZM5.91131 13.5111H7.60006V29.5556H5.91131V13.5111ZM9.28918 13.5111H12.667V29.5556H9.28918V13.5111ZM14.3558 13.5111H16.0445V29.5556H14.3558V13.5111ZM17.7337 13.5111H21.1115V29.5556H17.7337V13.5111ZM22.8003 13.5111H24.489V29.5556H22.8003V13.5111ZM26.1781 13.5111H29.556V29.5556H26.1781V13.5111ZM31.2447 13.5111H32.9335V29.5556H31.2447V13.5111ZM2.53352 31.2445H36.3114V32.9332H2.53352V31.2445ZM1.68915 34.6224H37.1559V36.3111H1.68915V34.6224Z" fill="black"/>
</svg>
