<svg width="55" height="40" viewBox="0 0 55 40" fill="none" xmlns="http://www.w3.org/2000/svg">
<path d="M54.4002 18.8733V17.2293C47.9974 15.7689 43.2005 10.0391 43.2005 3.20037V0.800228C43.2005 0.358258 42.8423 0 42.4003 0C41.9583 0 41.6001 0.358258 41.6001 0.800228V3.20037C41.6001 11.1406 35.1402 17.6003 27.2001 17.6003C19.2598 17.6003 12.8001 11.1405 12.8001 3.20037V0.800228C12.8001 0.358258 12.4419 0 11.9999 0C11.5579 0 11.1997 0.358258 11.1997 0.800228V3.20037C11.1997 10.0396 6.40284 15.7689 0 17.2299V18.8739C1.71485 18.5201 3.32985 17.889 4.80028 17.0358L4.80083 28.8003H0.000558035V30.4002H11.2002V38.4001H4.00055V40H20.0005V38.4001H12.8008V30.4002H41.6008V38.4001H34.4011V40H50.401V38.4001H43.2013L43.2008 30.4002H54.4005V28.8003H49.6002L49.6007 17.0353C51.0712 17.8891 52.6856 18.5198 54.4004 18.8735L54.4002 18.8733ZM11.2003 28.8002H6.40004V15.9999H6.35931C8.40959 14.4648 10.0759 12.4548 11.2003 10.1282L11.2003 28.8002ZM16.8002 28.8002H12.8002V10.1288C13.7672 12.1299 15.1305 13.9016 16.8002 15.3346V28.8002ZM23.2003 28.8002H18.4V16.5485C19.8514 17.5089 21.4709 18.2259 23.2003 18.6735V28.8002ZM29.6004 28.8002H24.8001V18.9999C25.5853 19.1188 26.3821 19.1997 27.2003 19.1997C28.0178 19.1997 28.8153 19.1182 29.6004 18.9999V28.8002ZM36.0005 28.8002H31.2003V18.6735C32.9291 18.2259 34.5486 17.5089 36.0005 16.5485V28.8002ZM41.6004 28.8002H37.6004V15.3342C39.2701 13.9012 40.6333 12.1293 41.6004 10.1284V28.8002ZM48.0005 15.9999V28.8002H43.2003V10.1288C44.3247 12.4552 45.991 14.4652 48.0412 16.0005L48.0005 15.9999Z" fill="white"/>
</svg>
