<svg width="35" height="35" viewBox="0 0 35 35" fill="none" xmlns="http://www.w3.org/2000/svg">
<rect x="0.5" y="0.5" width="34" height="34" fill="url(#paint0_linear_23_561)" fill-opacity="0.5"/>
<rect x="0.5" y="0.5" width="34" height="34" fill="white" fill-opacity="0.5"/>
<rect x="0.5" y="0.5" width="34" height="34" stroke="white"/>
<circle cx="17.5" cy="18" r="4" fill="black"/>
<path d="M18.1448 10.7097V8.64511C18.1448 8.29026 17.8546 8 17.4997 8C17.1449 8 16.8546 8.29028 16.8546 8.64511V10.7097C16.8546 11.0645 17.1449 11.3548 17.4997 11.3548C17.8546 11.3548 18.1448 11.0645 18.1448 10.7097Z" fill="black"/>
<path d="M16.8545 25.2916V27.3561C16.8545 27.711 17.1448 28.0013 17.4996 28.0013C17.8544 28.0013 18.1447 27.711 18.1447 27.3561V25.2916C18.1447 24.9367 17.8544 24.6465 17.4996 24.6465C17.1448 24.6465 16.8545 24.9368 16.8545 25.2916Z" fill="black"/>
<path d="M26.8874 17.3555H24.8228C24.468 17.3555 24.1777 17.6457 24.1777 18.0006C24.1777 18.3554 24.468 18.6457 24.8228 18.6457H26.8874C27.2423 18.6457 27.5325 18.3554 27.5325 18.0006C27.5325 17.6457 27.2422 17.3555 26.8874 17.3555Z" fill="black"/>
<path d="M10.2097 18.6457C10.5645 18.6457 10.8548 18.3554 10.8548 18.0006C10.8548 17.6457 10.5645 17.3555 10.2097 17.3555H8.14511C7.79026 17.3555 7.5 17.6457 7.5 18.0006C7.5 18.3554 7.79028 18.6457 8.14511 18.6457H10.2097Z" fill="black"/>
<path d="M11.339 10.9045C11.0809 10.6464 10.6939 10.6464 10.4358 10.9045C10.1776 11.1626 10.1777 11.5496 10.4358 11.8077L11.8873 13.2593C12.0165 13.4207 12.1778 13.4852 12.339 13.4852C12.5003 13.4852 12.6616 13.4207 12.7906 13.2917C13.0487 13.0336 13.0487 12.6466 12.7906 12.3885L11.339 10.9045Z" fill="black"/>
<path d="M23.1124 22.7092C22.8544 22.4511 22.4673 22.4511 22.2092 22.7092C21.9511 22.9673 21.9511 23.3543 22.2092 23.6124L23.6608 25.064C23.7897 25.193 23.9511 25.2575 24.1124 25.2575C24.2737 25.2575 24.4351 25.193 24.564 25.064C24.8221 24.8059 24.8221 24.4189 24.564 24.1608L23.1124 22.7092Z" fill="black"/>
<path d="M22.2092 13.2904C22.3382 13.4195 22.4995 13.4841 22.6608 13.4841C22.8222 13.4841 22.9835 13.4195 23.1124 13.2906L24.564 11.839C24.8221 11.5809 24.8221 11.1939 24.564 10.9358C24.3059 10.6776 23.9189 10.6777 23.6608 10.9358L22.2092 12.3873C21.9511 12.6452 21.9511 13.0325 22.2092 13.2904L22.2092 13.2904Z" fill="black"/>
<path d="M10.4029 25.0972C10.5318 25.2262 10.6931 25.2907 10.8545 25.2907C11.0158 25.2907 11.1771 25.2262 11.3061 25.0972L12.7577 23.6456C13.0158 23.3875 13.0158 23.0005 12.7577 22.7424C12.4996 22.4843 12.1125 22.4843 11.8544 22.7424L10.4028 24.1618C10.1769 24.4199 10.1769 24.8391 10.4028 25.0972H10.4029Z" fill="black"/>
<defs>
<linearGradient id="paint0_linear_23_561" x1="-2.34767e-07" y1="0.536036" x2="34.8659" y2="34.372" gradientUnits="userSpaceOnUse">
<stop stop-color="white" stop-opacity="0.45"/>
<stop offset="1" stop-color="white" stop-opacity="0"/>
<stop offset="1" stop-color="white" stop-opacity="0"/>
</linearGradient>
</defs>
</svg>
