<svg width="15" height="15" viewBox="0 0 15 15" fill="none" xmlns="http://www.w3.org/2000/svg">
<path d="M5.91252 0.000206641C5.8485 0.000206641 5.77486 0.0103489 5.69182 0.0316908C2.41953 0.8719 0 3.84977 0 7.3963C0 11.5957 3.39129 15 7.57449 15C10.0871 15 12.3129 13.7711 13.6907 11.88C13.9626 11.5067 13.8328 11.2657 13.4421 11.2657C13.3905 11.2657 13.3344 11.2699 13.274 11.2785C12.9462 11.3254 12.6114 11.3499 12.2706 11.3499C8.33842 11.3499 5.15079 8.14986 5.15079 4.20251C5.15079 2.90579 5.49551 1.69018 6.09729 0.641909C6.31482 0.262724 6.23928 0 5.91272 0L5.91252 0.000206641Z" fill="white"/>
<path d="M10.9392 7.22885L11.6785 7.51906L11.8531 8.27918C11.9032 8.49703 12.0163 8.61071 12.1518 8.61071C12.2508 8.61071 12.3618 8.54996 12.4687 8.42467L12.9791 7.8266L13.7719 7.89886C13.7985 7.90129 13.8239 7.90245 13.8482 7.90245C14.1836 7.90245 14.2997 7.67647 14.1036 7.37114L13.68 6.71157L13.9952 5.99569C14.1264 5.69818 14.0184 5.50148 13.7541 5.50148C13.7032 5.50148 13.6466 5.50877 13.5847 5.52398L12.8125 5.71457L12.2144 5.20016C12.105 5.10602 12.0003 5.06091 11.9104 5.06091C11.7564 5.06091 11.6458 5.19287 11.6291 5.43639L11.5756 6.21385L10.8908 6.6113C10.5508 6.80844 10.5725 7.08492 10.9393 7.22881L10.9392 7.22885Z" fill="white"/>
<path d="M13.5179 1.2425C13.4806 1.2425 13.439 1.24778 13.3936 1.25898L12.8272 1.39865L12.3888 1.02138C12.3085 0.9525 12.2317 0.919434 12.1658 0.919434C12.0528 0.919434 11.9718 1.0161 11.9596 1.19476L11.9204 1.76494L11.4181 2.05653C11.1689 2.20105 11.1848 2.4039 11.4537 2.50933L11.9959 2.72211L12.124 3.27939C12.1606 3.43913 12.2435 3.52259 12.3431 3.52259C12.4157 3.52259 12.497 3.47811 12.5754 3.3863L12.9497 2.94764L13.531 3.00036C13.5506 3.00216 13.5694 3.003 13.5873 3.003C13.8331 3.003 13.918 2.83714 13.7743 2.61349L13.4636 2.12993L13.6948 1.60497C13.7909 1.38681 13.7116 1.2425 13.5179 1.2425L13.5179 1.2425Z" fill="white"/>
<path d="M9.19888 3.43216C9.16835 3.43216 9.13433 3.4366 9.09725 3.44568L8.63398 3.56L8.27518 3.25119C8.20958 3.19477 8.14672 3.16772 8.09273 3.16772C8.00039 3.16772 7.93394 3.24686 7.9239 3.39307L7.89179 3.8594L7.48082 4.09806C7.27692 4.21638 7.29002 4.38226 7.50998 4.46856L7.95359 4.64267L8.0585 5.09863C8.0885 5.22943 8.15643 5.29757 8.23768 5.29757C8.29705 5.29757 8.36361 5.26112 8.42774 5.18611L8.7339 4.82721L9.20953 4.87053C9.22548 4.87201 9.2408 4.87275 9.25538 4.87275C9.45664 4.87275 9.52616 4.73699 9.40846 4.5539L9.15427 4.15825L9.34339 3.72879C9.42231 3.55003 9.35754 3.43212 9.19886 3.43212L9.19888 3.43216Z" fill="white"/>
</svg>
