<svg width="113" height="125" viewBox="0 0 113 125" fill="none" xmlns="http://www.w3.org/2000/svg">
<path fill-rule="evenodd" clip-rule="evenodd" d="M109.281 2.99401H2.99401L2.99401 64.3713H109.281V2.99401ZM2.99401 0C1.34046 0 0 1.34046 0 2.99401V64.3713C0 66.0248 1.34046 67.3653 2.99401 67.3653H109.281C110.935 67.3653 112.275 66.0248 112.275 64.3713V2.99401C112.275 1.34046 110.935 0 109.281 0H2.99401Z" fill="white"/>
<path d="M23.5622 30.7185H23.2927C23.1131 31.1576 22.8935 31.5768 22.634 31.976C22.3745 32.3752 22.0552 32.7345 21.6759 33.0538C21.2967 33.3532 20.8476 33.5928 20.3286 33.7724C19.8296 33.9521 19.2608 34.0419 18.6221 34.0419C17.6041 34.0419 16.6959 33.8024 15.8975 33.3233C15.1191 32.8443 14.4604 32.1457 13.9215 31.2275C13.3825 30.3093 12.9734 29.1916 12.6939 27.8742C12.4344 26.5568 12.3047 25.0698 12.3047 23.4131C12.3047 19.8602 12.9534 17.1457 14.2508 15.2694C15.5482 13.3732 17.5542 12.4251 20.2688 12.4251C21.3466 12.4251 22.2947 12.5748 23.1131 12.8742C23.9314 13.1536 24.63 13.5628 25.2089 14.1017C25.8077 14.6207 26.2967 15.2495 26.6759 15.988C27.0552 16.7265 27.3546 17.5449 27.5741 18.4431L23.3825 19.461C23.2628 19.0219 23.1231 18.6027 22.9634 18.2035C22.8237 17.7844 22.634 17.4151 22.3945 17.0958C22.155 16.7764 21.8556 16.5269 21.4963 16.3473C21.137 16.1477 20.6979 16.0479 20.1789 16.0479C19.0412 16.0479 18.2328 16.5169 17.7538 17.455C17.2947 18.3932 17.0652 19.7105 17.0652 21.4071V24.8203C17.0652 26.5169 17.3147 27.8742 17.8137 28.8922C18.3326 29.9101 19.2408 30.4191 20.5382 30.4191C21.5562 30.4191 22.3147 30.1197 22.8137 29.5209C23.3127 28.9221 23.5622 28.1536 23.5622 27.2155V25.6886H19.9993V22.5149H27.5741V33.6826H23.5622V30.7185Z" fill="white"/>
<path d="M23.5622 30.7185H23.2927C23.1131 31.1576 22.8935 31.5768 22.634 31.976C22.3745 32.3752 22.0552 32.7345 21.6759 33.0538C21.2967 33.3532 20.8476 33.5928 20.3286 33.7724C19.8296 33.9521 19.2608 34.0419 18.6221 34.0419C17.6041 34.0419 16.6959 33.8024 15.8975 33.3233C15.1191 32.8443 14.4604 32.1457 13.9215 31.2275C13.3825 30.3093 12.9734 29.1916 12.6939 27.8742C12.4344 26.5568 12.3047 25.0698 12.3047 23.4131C12.3047 19.8602 12.9534 17.1457 14.2508 15.2694C15.5482 13.3732 17.5542 12.4251 20.2688 12.4251C21.3466 12.4251 22.2947 12.5748 23.1131 12.8742C23.9314 13.1536 24.63 13.5628 25.2089 14.1017C25.8077 14.6207 26.2967 15.2495 26.6759 15.988C27.0552 16.7265 27.3546 17.5449 27.5741 18.4431L23.3825 19.461C23.2628 19.0219 23.1231 18.6027 22.9634 18.2035C22.8237 17.7844 22.634 17.4151 22.3945 17.0958C22.155 16.7764 21.8556 16.5269 21.4963 16.3473C21.137 16.1477 20.6979 16.0479 20.1789 16.0479C19.0412 16.0479 18.2328 16.5169 17.7538 17.455C17.2947 18.3932 17.0652 19.7105 17.0652 21.4071V24.8203C17.0652 26.5169 17.3147 27.8742 17.8137 28.8922C18.3326 29.9101 19.2408 30.4191 20.5382 30.4191C21.5562 30.4191 22.3147 30.1197 22.8137 29.5209C23.3127 28.9221 23.5622 28.1536 23.5622 27.2155V25.6886H19.9993V22.5149H27.5741V33.6826H23.5622V30.7185Z" fill="url(#paint0_linear_66_56)"/>
<path d="M23.5622 30.7185H23.2927C23.1131 31.1576 22.8935 31.5768 22.634 31.976C22.3745 32.3752 22.0552 32.7345 21.6759 33.0538C21.2967 33.3532 20.8476 33.5928 20.3286 33.7724C19.8296 33.9521 19.2608 34.0419 18.6221 34.0419C17.6041 34.0419 16.6959 33.8024 15.8975 33.3233C15.1191 32.8443 14.4604 32.1457 13.9215 31.2275C13.3825 30.3093 12.9734 29.1916 12.6939 27.8742C12.4344 26.5568 12.3047 25.0698 12.3047 23.4131C12.3047 19.8602 12.9534 17.1457 14.2508 15.2694C15.5482 13.3732 17.5542 12.4251 20.2688 12.4251C21.3466 12.4251 22.2947 12.5748 23.1131 12.8742C23.9314 13.1536 24.63 13.5628 25.2089 14.1017C25.8077 14.6207 26.2967 15.2495 26.6759 15.988C27.0552 16.7265 27.3546 17.5449 27.5741 18.4431L23.3825 19.461C23.2628 19.0219 23.1231 18.6027 22.9634 18.2035C22.8237 17.7844 22.634 17.4151 22.3945 17.0958C22.155 16.7764 21.8556 16.5269 21.4963 16.3473C21.137 16.1477 20.6979 16.0479 20.1789 16.0479C19.0412 16.0479 18.2328 16.5169 17.7538 17.455C17.2947 18.3932 17.0652 19.7105 17.0652 21.4071V24.8203C17.0652 26.5169 17.3147 27.8742 17.8137 28.8922C18.3326 29.9101 19.2408 30.4191 20.5382 30.4191C21.5562 30.4191 22.3147 30.1197 22.8137 29.5209C23.3127 28.9221 23.5622 28.1536 23.5622 27.2155V25.6886H19.9993V22.5149H27.5741V33.6826H23.5622V30.7185Z" fill="#C2DBFD"/>
<path d="M23.5622 30.7185H23.2927C23.1131 31.1576 22.8935 31.5768 22.634 31.976C22.3745 32.3752 22.0552 32.7345 21.6759 33.0538C21.2967 33.3532 20.8476 33.5928 20.3286 33.7724C19.8296 33.9521 19.2608 34.0419 18.6221 34.0419C17.6041 34.0419 16.6959 33.8024 15.8975 33.3233C15.1191 32.8443 14.4604 32.1457 13.9215 31.2275C13.3825 30.3093 12.9734 29.1916 12.6939 27.8742C12.4344 26.5568 12.3047 25.0698 12.3047 23.4131C12.3047 19.8602 12.9534 17.1457 14.2508 15.2694C15.5482 13.3732 17.5542 12.4251 20.2688 12.4251C21.3466 12.4251 22.2947 12.5748 23.1131 12.8742C23.9314 13.1536 24.63 13.5628 25.2089 14.1017C25.8077 14.6207 26.2967 15.2495 26.6759 15.988C27.0552 16.7265 27.3546 17.5449 27.5741 18.4431L23.3825 19.461C23.2628 19.0219 23.1231 18.6027 22.9634 18.2035C22.8237 17.7844 22.634 17.4151 22.3945 17.0958C22.155 16.7764 21.8556 16.5269 21.4963 16.3473C21.137 16.1477 20.6979 16.0479 20.1789 16.0479C19.0412 16.0479 18.2328 16.5169 17.7538 17.455C17.2947 18.3932 17.0652 19.7105 17.0652 21.4071V24.8203C17.0652 26.5169 17.3147 27.8742 17.8137 28.8922C18.3326 29.9101 19.2408 30.4191 20.5382 30.4191C21.5562 30.4191 22.3147 30.1197 22.8137 29.5209C23.3127 28.9221 23.5622 28.1536 23.5622 27.2155V25.6886H19.9993V22.5149H27.5741V33.6826H23.5622V30.7185Z" fill="white"/>
<path d="M38.1912 34.0419C35.3968 34.0419 33.3309 33.0938 31.9936 31.1976C30.6762 29.3014 30.0175 26.6467 30.0175 23.2335C30.0175 19.8203 30.6762 17.1656 31.9936 15.2694C33.3309 13.3732 35.3968 12.4251 38.1912 12.4251C40.9856 12.4251 43.0415 13.3732 44.3589 15.2694C45.6962 17.1656 46.3648 19.8203 46.3648 23.2335C46.3648 26.6467 45.6962 29.3014 44.3589 31.1976C43.0415 33.0938 40.9856 34.0419 38.1912 34.0419ZM38.1912 30.4191C39.4686 30.4191 40.3469 29.9501 40.8259 29.0119C41.3249 28.0538 41.5744 26.7265 41.5744 25.0299V21.4071C41.5744 19.7305 41.3249 18.4231 40.8259 17.485C40.3469 16.5269 39.4686 16.0479 38.1912 16.0479C36.9137 16.0479 36.0255 16.5269 35.5265 17.485C35.0475 18.4231 34.808 19.7305 34.808 21.4071V25.0598C34.808 26.7365 35.0475 28.0538 35.5265 29.0119C36.0255 29.9501 36.9137 30.4191 38.1912 30.4191ZM34.8978 10.8982C33.9996 10.8982 33.3708 10.7185 33.0116 10.3592C32.6722 9.97999 32.5026 9.53089 32.5026 9.01193V8.23349C32.5026 7.71452 32.6722 7.2754 33.0116 6.91612C33.3708 6.55684 33.9996 6.3772 34.8978 6.3772C35.796 6.3772 36.4247 6.55684 36.784 6.91612C37.1433 7.2754 37.3229 7.71452 37.3229 8.23349V9.01193C37.3229 9.53089 37.1433 9.97999 36.784 10.3592C36.4247 10.7185 35.796 10.8982 34.8978 10.8982ZM41.4846 10.8982C40.5864 10.8982 39.9577 10.7185 39.5984 10.3592C39.2391 9.97999 39.0595 9.53089 39.0595 9.01193V8.23349C39.0595 7.71452 39.2391 7.2754 39.5984 6.91612C39.9577 6.55684 40.5864 6.3772 41.4846 6.3772C42.3828 6.3772 43.0016 6.55684 43.3409 6.91612C43.7002 7.2754 43.8798 7.71452 43.8798 8.23349V9.01193C43.8798 9.53089 43.7002 9.97999 43.3409 10.3592C43.0016 10.7185 42.3828 10.8982 41.4846 10.8982Z" fill="white"/>
<path d="M38.1912 34.0419C35.3968 34.0419 33.3309 33.0938 31.9936 31.1976C30.6762 29.3014 30.0175 26.6467 30.0175 23.2335C30.0175 19.8203 30.6762 17.1656 31.9936 15.2694C33.3309 13.3732 35.3968 12.4251 38.1912 12.4251C40.9856 12.4251 43.0415 13.3732 44.3589 15.2694C45.6962 17.1656 46.3648 19.8203 46.3648 23.2335C46.3648 26.6467 45.6962 29.3014 44.3589 31.1976C43.0415 33.0938 40.9856 34.0419 38.1912 34.0419ZM38.1912 30.4191C39.4686 30.4191 40.3469 29.9501 40.8259 29.0119C41.3249 28.0538 41.5744 26.7265 41.5744 25.0299V21.4071C41.5744 19.7305 41.3249 18.4231 40.8259 17.485C40.3469 16.5269 39.4686 16.0479 38.1912 16.0479C36.9137 16.0479 36.0255 16.5269 35.5265 17.485C35.0475 18.4231 34.808 19.7305 34.808 21.4071V25.0598C34.808 26.7365 35.0475 28.0538 35.5265 29.0119C36.0255 29.9501 36.9137 30.4191 38.1912 30.4191ZM34.8978 10.8982C33.9996 10.8982 33.3708 10.7185 33.0116 10.3592C32.6722 9.97999 32.5026 9.53089 32.5026 9.01193V8.23349C32.5026 7.71452 32.6722 7.2754 33.0116 6.91612C33.3708 6.55684 33.9996 6.3772 34.8978 6.3772C35.796 6.3772 36.4247 6.55684 36.784 6.91612C37.1433 7.2754 37.3229 7.71452 37.3229 8.23349V9.01193C37.3229 9.53089 37.1433 9.97999 36.784 10.3592C36.4247 10.7185 35.796 10.8982 34.8978 10.8982ZM41.4846 10.8982C40.5864 10.8982 39.9577 10.7185 39.5984 10.3592C39.2391 9.97999 39.0595 9.53089 39.0595 9.01193V8.23349C39.0595 7.71452 39.2391 7.2754 39.5984 6.91612C39.9577 6.55684 40.5864 6.3772 41.4846 6.3772C42.3828 6.3772 43.0016 6.55684 43.3409 6.91612C43.7002 7.2754 43.8798 7.71452 43.8798 8.23349V9.01193C43.8798 9.53089 43.7002 9.97999 43.3409 10.3592C43.0016 10.7185 42.3828 10.8982 41.4846 10.8982Z" fill="url(#paint1_linear_66_56)"/>
<path d="M38.1912 34.0419C35.3968 34.0419 33.3309 33.0938 31.9936 31.1976C30.6762 29.3014 30.0175 26.6467 30.0175 23.2335C30.0175 19.8203 30.6762 17.1656 31.9936 15.2694C33.3309 13.3732 35.3968 12.4251 38.1912 12.4251C40.9856 12.4251 43.0415 13.3732 44.3589 15.2694C45.6962 17.1656 46.3648 19.8203 46.3648 23.2335C46.3648 26.6467 45.6962 29.3014 44.3589 31.1976C43.0415 33.0938 40.9856 34.0419 38.1912 34.0419ZM38.1912 30.4191C39.4686 30.4191 40.3469 29.9501 40.8259 29.0119C41.3249 28.0538 41.5744 26.7265 41.5744 25.0299V21.4071C41.5744 19.7305 41.3249 18.4231 40.8259 17.485C40.3469 16.5269 39.4686 16.0479 38.1912 16.0479C36.9137 16.0479 36.0255 16.5269 35.5265 17.485C35.0475 18.4231 34.808 19.7305 34.808 21.4071V25.0598C34.808 26.7365 35.0475 28.0538 35.5265 29.0119C36.0255 29.9501 36.9137 30.4191 38.1912 30.4191ZM34.8978 10.8982C33.9996 10.8982 33.3708 10.7185 33.0116 10.3592C32.6722 9.97999 32.5026 9.53089 32.5026 9.01193V8.23349C32.5026 7.71452 32.6722 7.2754 33.0116 6.91612C33.3708 6.55684 33.9996 6.3772 34.8978 6.3772C35.796 6.3772 36.4247 6.55684 36.784 6.91612C37.1433 7.2754 37.3229 7.71452 37.3229 8.23349V9.01193C37.3229 9.53089 37.1433 9.97999 36.784 10.3592C36.4247 10.7185 35.796 10.8982 34.8978 10.8982ZM41.4846 10.8982C40.5864 10.8982 39.9577 10.7185 39.5984 10.3592C39.2391 9.97999 39.0595 9.53089 39.0595 9.01193V8.23349C39.0595 7.71452 39.2391 7.2754 39.5984 6.91612C39.9577 6.55684 40.5864 6.3772 41.4846 6.3772C42.3828 6.3772 43.0016 6.55684 43.3409 6.91612C43.7002 7.2754 43.8798 7.71452 43.8798 8.23349V9.01193C43.8798 9.53089 43.7002 9.97999 43.3409 10.3592C43.0016 10.7185 42.3828 10.8982 41.4846 10.8982Z" fill="#C2DBFD"/>
<path d="M38.1912 34.0419C35.3968 34.0419 33.3309 33.0938 31.9936 31.1976C30.6762 29.3014 30.0175 26.6467 30.0175 23.2335C30.0175 19.8203 30.6762 17.1656 31.9936 15.2694C33.3309 13.3732 35.3968 12.4251 38.1912 12.4251C40.9856 12.4251 43.0415 13.3732 44.3589 15.2694C45.6962 17.1656 46.3648 19.8203 46.3648 23.2335C46.3648 26.6467 45.6962 29.3014 44.3589 31.1976C43.0415 33.0938 40.9856 34.0419 38.1912 34.0419ZM38.1912 30.4191C39.4686 30.4191 40.3469 29.9501 40.8259 29.0119C41.3249 28.0538 41.5744 26.7265 41.5744 25.0299V21.4071C41.5744 19.7305 41.3249 18.4231 40.8259 17.485C40.3469 16.5269 39.4686 16.0479 38.1912 16.0479C36.9137 16.0479 36.0255 16.5269 35.5265 17.485C35.0475 18.4231 34.808 19.7305 34.808 21.4071V25.0598C34.808 26.7365 35.0475 28.0538 35.5265 29.0119C36.0255 29.9501 36.9137 30.4191 38.1912 30.4191ZM34.8978 10.8982C33.9996 10.8982 33.3708 10.7185 33.0116 10.3592C32.6722 9.97999 32.5026 9.53089 32.5026 9.01193V8.23349C32.5026 7.71452 32.6722 7.2754 33.0116 6.91612C33.3708 6.55684 33.9996 6.3772 34.8978 6.3772C35.796 6.3772 36.4247 6.55684 36.784 6.91612C37.1433 7.2754 37.3229 7.71452 37.3229 8.23349V9.01193C37.3229 9.53089 37.1433 9.97999 36.784 10.3592C36.4247 10.7185 35.796 10.8982 34.8978 10.8982ZM41.4846 10.8982C40.5864 10.8982 39.9577 10.7185 39.5984 10.3592C39.2391 9.97999 39.0595 9.53089 39.0595 9.01193V8.23349C39.0595 7.71452 39.2391 7.2754 39.5984 6.91612C39.9577 6.55684 40.5864 6.3772 41.4846 6.3772C42.3828 6.3772 43.0016 6.55684 43.3409 6.91612C43.7002 7.2754 43.8798 7.71452 43.8798 8.23349V9.01193C43.8798 9.53089 43.7002 9.97999 43.3409 10.3592C43.0016 10.7185 42.3828 10.8982 41.4846 10.8982Z" fill="white"/>
<path d="M53.8681 33.6826H49.437V12.7844H57.5208C58.5388 12.7844 59.447 12.9441 60.2454 13.2634C61.0438 13.5628 61.7124 14.0019 62.2514 14.5808C62.8102 15.1596 63.2294 15.8582 63.5088 16.6766C63.7883 17.495 63.928 18.4131 63.928 19.4311C63.928 20.9081 63.6086 22.1756 62.9699 23.2335C62.3312 24.2914 61.423 24.99 60.2454 25.3293L64.3472 33.6826H59.437L55.934 25.9281H53.8681V33.6826ZM56.443 22.455C57.5009 22.455 58.2294 22.2554 58.6286 21.8562C59.0478 21.457 59.2573 20.7984 59.2573 19.8802V18.982C59.2573 18.0638 59.0478 17.4051 58.6286 17.0059C58.2294 16.6067 57.5009 16.4071 56.443 16.4071H53.8681V22.455H56.443Z" fill="white"/>
<path d="M53.8681 33.6826H49.437V12.7844H57.5208C58.5388 12.7844 59.447 12.9441 60.2454 13.2634C61.0438 13.5628 61.7124 14.0019 62.2514 14.5808C62.8102 15.1596 63.2294 15.8582 63.5088 16.6766C63.7883 17.495 63.928 18.4131 63.928 19.4311C63.928 20.9081 63.6086 22.1756 62.9699 23.2335C62.3312 24.2914 61.423 24.99 60.2454 25.3293L64.3472 33.6826H59.437L55.934 25.9281H53.8681V33.6826ZM56.443 22.455C57.5009 22.455 58.2294 22.2554 58.6286 21.8562C59.0478 21.457 59.2573 20.7984 59.2573 19.8802V18.982C59.2573 18.0638 59.0478 17.4051 58.6286 17.0059C58.2294 16.6067 57.5009 16.4071 56.443 16.4071H53.8681V22.455H56.443Z" fill="url(#paint2_linear_66_56)"/>
<path d="M53.8681 33.6826H49.437V12.7844H57.5208C58.5388 12.7844 59.447 12.9441 60.2454 13.2634C61.0438 13.5628 61.7124 14.0019 62.2514 14.5808C62.8102 15.1596 63.2294 15.8582 63.5088 16.6766C63.7883 17.495 63.928 18.4131 63.928 19.4311C63.928 20.9081 63.6086 22.1756 62.9699 23.2335C62.3312 24.2914 61.423 24.99 60.2454 25.3293L64.3472 33.6826H59.437L55.934 25.9281H53.8681V33.6826ZM56.443 22.455C57.5009 22.455 58.2294 22.2554 58.6286 21.8562C59.0478 21.457 59.2573 20.7984 59.2573 19.8802V18.982C59.2573 18.0638 59.0478 17.4051 58.6286 17.0059C58.2294 16.6067 57.5009 16.4071 56.443 16.4071H53.8681V22.455H56.443Z" fill="#C2DBFD"/>
<path d="M53.8681 33.6826H49.437V12.7844H57.5208C58.5388 12.7844 59.447 12.9441 60.2454 13.2634C61.0438 13.5628 61.7124 14.0019 62.2514 14.5808C62.8102 15.1596 63.2294 15.8582 63.5088 16.6766C63.7883 17.495 63.928 18.4131 63.928 19.4311C63.928 20.9081 63.6086 22.1756 62.9699 23.2335C62.3312 24.2914 61.423 24.99 60.2454 25.3293L64.3472 33.6826H59.437L55.934 25.9281H53.8681V33.6826ZM56.443 22.455C57.5009 22.455 58.2294 22.2554 58.6286 21.8562C59.0478 21.457 59.2573 20.7984 59.2573 19.8802V18.982C59.2573 18.0638 59.0478 17.4051 58.6286 17.0059C58.2294 16.6067 57.5009 16.4071 56.443 16.4071H53.8681V22.455H56.443Z" fill="white"/>
<path d="M67.8684 33.6826V12.7844H72.3894V30H81.3714V33.6826H67.8684Z" fill="white"/>
<path d="M67.8684 33.6826V12.7844H72.3894V30H81.3714V33.6826H67.8684Z" fill="url(#paint3_linear_66_56)"/>
<path d="M67.8684 33.6826V12.7844H72.3894V30H81.3714V33.6826H67.8684Z" fill="#C2DBFD"/>
<path d="M67.8684 33.6826V12.7844H72.3894V30H81.3714V33.6826H67.8684Z" fill="white"/>
<path d="M85.3118 33.6826V30.3592H89.8028V16.1077H85.3118V12.7844H98.7849V16.1077H94.2938V30.3592H98.7849V33.6826H85.3118Z" fill="white"/>
<path d="M85.3118 33.6826V30.3592H89.8028V16.1077H85.3118V12.7844H98.7849V16.1077H94.2938V30.3592H98.7849V33.6826H85.3118Z" fill="url(#paint4_linear_66_56)"/>
<path d="M85.3118 33.6826V30.3592H89.8028V16.1077H85.3118V12.7844H98.7849V16.1077H94.2938V30.3592H98.7849V33.6826H85.3118Z" fill="#C2DBFD"/>
<path d="M85.3118 33.6826V30.3592H89.8028V16.1077H85.3118V12.7844H98.7849V16.1077H94.2938V30.3592H98.7849V33.6826H85.3118Z" fill="white"/>
<path d="M31.1253 38.982H37.8619C40.6762 38.982 42.7621 39.8802 44.1193 41.6766C45.4766 43.473 46.1553 46.0578 46.1553 49.4311C46.1553 52.8043 45.4766 55.3892 44.1193 57.1856C42.7621 58.982 40.6762 59.8802 37.8619 59.8802H31.1253V38.982ZM37.5625 56.3473C38.8998 56.3473 39.8778 55.9181 40.4966 55.0598C41.1153 54.2016 41.4247 52.954 41.4247 51.3173V47.5149C41.4247 45.8982 41.1153 44.6606 40.4966 43.8024C39.8778 42.9441 38.8998 42.5149 37.5625 42.5149H35.5565V56.3473H37.5625Z" fill="white"/>
<path d="M31.1253 38.982H37.8619C40.6762 38.982 42.7621 39.8802 44.1193 41.6766C45.4766 43.473 46.1553 46.0578 46.1553 49.4311C46.1553 52.8043 45.4766 55.3892 44.1193 57.1856C42.7621 58.982 40.6762 59.8802 37.8619 59.8802H31.1253V38.982ZM37.5625 56.3473C38.8998 56.3473 39.8778 55.9181 40.4966 55.0598C41.1153 54.2016 41.4247 52.954 41.4247 51.3173V47.5149C41.4247 45.8982 41.1153 44.6606 40.4966 43.8024C39.8778 42.9441 38.8998 42.5149 37.5625 42.5149H35.5565V56.3473H37.5625Z" fill="url(#paint5_linear_66_56)"/>
<path d="M31.1253 38.982H37.8619C40.6762 38.982 42.7621 39.8802 44.1193 41.6766C45.4766 43.473 46.1553 46.0578 46.1553 49.4311C46.1553 52.8043 45.4766 55.3892 44.1193 57.1856C42.7621 58.982 40.6762 59.8802 37.8619 59.8802H31.1253V38.982ZM37.5625 56.3473C38.8998 56.3473 39.8778 55.9181 40.4966 55.0598C41.1153 54.2016 41.4247 52.954 41.4247 51.3173V47.5149C41.4247 45.8982 41.1153 44.6606 40.4966 43.8024C39.8778 42.9441 38.8998 42.5149 37.5625 42.5149H35.5565V56.3473H37.5625Z" fill="#C2DBFD"/>
<path d="M31.1253 38.982H37.8619C40.6762 38.982 42.7621 39.8802 44.1193 41.6766C45.4766 43.473 46.1553 46.0578 46.1553 49.4311C46.1553 52.8043 45.4766 55.3892 44.1193 57.1856C42.7621 58.982 40.6762 59.8802 37.8619 59.8802H31.1253V38.982ZM37.5625 56.3473C38.8998 56.3473 39.8778 55.9181 40.4966 55.0598C41.1153 54.2016 41.4247 52.954 41.4247 51.3173V47.5149C41.4247 45.8982 41.1153 44.6606 40.4966 43.8024C39.8778 42.9441 38.8998 42.5149 37.5625 42.5149H35.5565V56.3473H37.5625Z" fill="white"/>
<path d="M60.1855 59.8802L58.8681 54.8503H53.1496L51.8621 59.8802H47.3112L52.9699 38.982H59.3172L64.9759 59.8802H60.1855ZM56.1436 43.3233H55.904L53.8681 51.2275H58.1795L56.1436 43.3233Z" fill="white"/>
<path d="M60.1855 59.8802L58.8681 54.8503H53.1496L51.8621 59.8802H47.3112L52.9699 38.982H59.3172L64.9759 59.8802H60.1855ZM56.1436 43.3233H55.904L53.8681 51.2275H58.1795L56.1436 43.3233Z" fill="url(#paint6_linear_66_56)"/>
<path d="M60.1855 59.8802L58.8681 54.8503H53.1496L51.8621 59.8802H47.3112L52.9699 38.982H59.3172L64.9759 59.8802H60.1855ZM56.1436 43.3233H55.904L53.8681 51.2275H58.1795L56.1436 43.3233Z" fill="#C2DBFD"/>
<path d="M60.1855 59.8802L58.8681 54.8503H53.1496L51.8621 59.8802H47.3112L52.9699 38.982H59.3172L64.9759 59.8802H60.1855ZM56.1436 43.3233H55.904L53.8681 51.2275H58.1795L56.1436 43.3233Z" fill="white"/>
<path d="M74.0959 60.2395C71.3015 60.2395 69.2357 59.2914 67.8983 57.3952C66.581 55.499 65.9223 52.8443 65.9223 49.4311C65.9223 46.0179 66.581 43.3632 67.8983 41.467C69.2357 39.5708 71.3015 38.6227 74.0959 38.6227C76.8904 38.6227 78.9463 39.5708 80.2636 41.467C81.6009 43.3632 82.2696 46.0179 82.2696 49.4311C82.2696 52.8443 81.6009 55.499 80.2636 57.3952C78.9463 59.2914 76.8904 60.2395 74.0959 60.2395ZM74.0959 56.6167C75.3734 56.6167 76.2516 56.1477 76.7307 55.2095C77.2297 54.2514 77.4792 52.9241 77.4792 51.2275V47.6047C77.4792 45.9281 77.2297 44.6207 76.7307 43.6826C76.2516 42.7245 75.3734 42.2455 74.0959 42.2455C72.8185 42.2455 71.9303 42.7245 71.4313 43.6826C70.9522 44.6207 70.7127 45.9281 70.7127 47.6047V51.2574C70.7127 52.9341 70.9522 54.2514 71.4313 55.2095C71.9303 56.1477 72.8185 56.6167 74.0959 56.6167Z" fill="white"/>
<path d="M74.0959 60.2395C71.3015 60.2395 69.2357 59.2914 67.8983 57.3952C66.581 55.499 65.9223 52.8443 65.9223 49.4311C65.9223 46.0179 66.581 43.3632 67.8983 41.467C69.2357 39.5708 71.3015 38.6227 74.0959 38.6227C76.8904 38.6227 78.9463 39.5708 80.2636 41.467C81.6009 43.3632 82.2696 46.0179 82.2696 49.4311C82.2696 52.8443 81.6009 55.499 80.2636 57.3952C78.9463 59.2914 76.8904 60.2395 74.0959 60.2395ZM74.0959 56.6167C75.3734 56.6167 76.2516 56.1477 76.7307 55.2095C77.2297 54.2514 77.4792 52.9241 77.4792 51.2275V47.6047C77.4792 45.9281 77.2297 44.6207 76.7307 43.6826C76.2516 42.7245 75.3734 42.2455 74.0959 42.2455C72.8185 42.2455 71.9303 42.7245 71.4313 43.6826C70.9522 44.6207 70.7127 45.9281 70.7127 47.6047V51.2574C70.7127 52.9341 70.9522 54.2514 71.4313 55.2095C71.9303 56.1477 72.8185 56.6167 74.0959 56.6167Z" fill="url(#paint7_linear_66_56)"/>
<path d="M74.0959 60.2395C71.3015 60.2395 69.2357 59.2914 67.8983 57.3952C66.581 55.499 65.9223 52.8443 65.9223 49.4311C65.9223 46.0179 66.581 43.3632 67.8983 41.467C69.2357 39.5708 71.3015 38.6227 74.0959 38.6227C76.8904 38.6227 78.9463 39.5708 80.2636 41.467C81.6009 43.3632 82.2696 46.0179 82.2696 49.4311C82.2696 52.8443 81.6009 55.499 80.2636 57.3952C78.9463 59.2914 76.8904 60.2395 74.0959 60.2395ZM74.0959 56.6167C75.3734 56.6167 76.2516 56.1477 76.7307 55.2095C77.2297 54.2514 77.4792 52.9241 77.4792 51.2275V47.6047C77.4792 45.9281 77.2297 44.6207 76.7307 43.6826C76.2516 42.7245 75.3734 42.2455 74.0959 42.2455C72.8185 42.2455 71.9303 42.7245 71.4313 43.6826C70.9522 44.6207 70.7127 45.9281 70.7127 47.6047V51.2574C70.7127 52.9341 70.9522 54.2514 71.4313 55.2095C71.9303 56.1477 72.8185 56.6167 74.0959 56.6167Z" fill="#C2DBFD"/>
<path d="M74.0959 60.2395C71.3015 60.2395 69.2357 59.2914 67.8983 57.3952C66.581 55.499 65.9223 52.8443 65.9223 49.4311C65.9223 46.0179 66.581 43.3632 67.8983 41.467C69.2357 39.5708 71.3015 38.6227 74.0959 38.6227C76.8904 38.6227 78.9463 39.5708 80.2636 41.467C81.6009 43.3632 82.2696 46.0179 82.2696 49.4311C82.2696 52.8443 81.6009 55.499 80.2636 57.3952C78.9463 59.2914 76.8904 60.2395 74.0959 60.2395ZM74.0959 56.6167C75.3734 56.6167 76.2516 56.1477 76.7307 55.2095C77.2297 54.2514 77.4792 52.9241 77.4792 51.2275V47.6047C77.4792 45.9281 77.2297 44.6207 76.7307 43.6826C76.2516 42.7245 75.3734 42.2455 74.0959 42.2455C72.8185 42.2455 71.9303 42.7245 71.4313 43.6826C70.9522 44.6207 70.7127 45.9281 70.7127 47.6047V51.2574C70.7127 52.9341 70.9522 54.2514 71.4313 55.2095C71.9303 56.1477 72.8185 56.6167 74.0959 56.6167Z" fill="white"/>
<path d="M83.0671 67.3852H77.3345C77.3345 67.3852 83.5836 85.8787 68.2746 85.8787C68.2746 85.8787 66.2287 67.3652 56.4184 67.3652H56.3528C46.5425 67.3652 44.4965 85.8787 44.4965 85.8787C29.1819 85.8787 35.431 67.3852 35.431 67.3852H29.6983C29.6983 67.3852 19.4115 92.8697 39.7226 101.225L33.5334 125H46.5025L47.8465 120.046H64.9246L66.2686 125H79.2377L73.0485 101.225C93.3539 92.8697 83.0671 67.3852 83.0671 67.3852ZM56.835 75.4149C56.835 75.1553 56.9206 74.9384 57.0918 74.7672C57.2659 74.5931 57.537 74.5104 57.9222 74.5104C58.3074 74.5104 58.5785 74.5931 58.7525 74.7672C58.9238 74.9384 59.0094 75.1553 59.0094 75.4149V75.6461C59.0094 75.9057 58.9238 76.1226 58.7525 76.2938C58.5785 76.4679 58.3074 76.5506 57.9222 76.5506C57.537 76.5506 57.2659 76.4679 57.0918 76.2938C56.9178 76.1197 56.835 75.9057 56.835 75.6461V75.4149ZM53.7561 75.4149C53.7561 75.1553 53.8417 74.9384 54.0129 74.7672C54.187 74.5931 54.458 74.5104 54.8433 74.5104C55.2285 74.5104 55.4996 74.5931 55.6736 74.7672C55.8448 74.9384 55.9304 75.1553 55.9304 75.4149V75.6461C55.9304 75.9057 55.8448 76.1226 55.6736 76.2938C55.5024 76.465 55.2285 76.5506 54.8433 76.5506C54.458 76.5506 54.187 76.4679 54.0129 76.2938C53.8388 76.1197 53.7561 75.9057 53.7561 75.6461V75.4149ZM52.6375 80.4884C52.8201 79.9206 53.0855 79.4298 53.4279 79.0331C53.7818 78.6222 54.2127 78.3027 54.7034 78.0858C55.2057 77.8689 55.7707 77.7605 56.3842 77.7605C56.9977 77.7605 57.5569 77.8689 58.0477 78.0858C58.5499 78.3027 58.9808 78.6222 59.3261 79.036C59.6771 79.4326 59.9482 79.9234 60.1308 80.4913C60.3105 81.0534 60.4019 81.6869 60.4019 82.3717C60.4019 83.0566 60.3105 83.7072 60.1308 84.2693C59.9482 84.8257 59.6771 85.3165 59.3261 85.7274C58.9837 86.1269 58.5528 86.4408 58.0506 86.6605C57.5598 86.8774 57.0005 86.9858 56.387 86.9858C55.7735 86.9858 55.2085 86.8774 54.7092 86.6605C54.2155 86.4437 53.7875 86.1298 53.4336 85.7303C53.0884 85.3194 52.8259 84.8286 52.6432 84.2721C52.4635 83.7072 52.3721 83.0708 52.3721 82.3746C52.3721 81.6783 52.4635 81.0563 52.6432 80.4941L52.6375 80.4884ZM62.5249 104.15L56.6153 112.47C56.5011 112.63 56.2615 112.63 56.1473 112.47L50.2434 104.15C50.0637 103.898 50.3576 103.579 50.623 103.739L56.2358 107.054C56.3242 107.109 56.4384 107.109 56.5268 107.054L62.1453 103.739C62.4107 103.582 62.7046 103.898 62.5249 104.15ZM63.0499 101.89L56.5297 105.745C56.4412 105.799 56.3271 105.799 56.2386 105.745L49.7184 101.89C49.5814 101.81 49.5358 101.633 49.6185 101.496L56.1388 90.6754C56.25 90.4899 56.5183 90.4899 56.6296 90.6754L63.1498 101.496C63.2325 101.633 63.1869 101.81 63.0499 101.89Z" fill="white"/>
<path d="M56.3813 85.5537C57.0775 85.5537 57.6482 85.3454 58.0705 84.9317C58.4928 84.5208 58.7068 83.8645 58.7068 82.9799V81.7557C58.7068 80.874 58.4928 80.2177 58.0705 79.8039C57.6482 79.3902 57.0804 79.1819 56.3813 79.1819C55.6822 79.1819 55.1143 79.3902 54.692 79.8039C54.2697 80.2148 54.0557 80.8711 54.0557 81.7557V82.9799C54.0557 83.8616 54.2697 84.5179 54.692 84.9317C55.1143 85.3454 55.6822 85.5537 56.3813 85.5537Z" fill="white"/>
<defs>
<linearGradient id="paint0_linear_66_56" x1="56.1377" y1="61.3772" x2="56.1377" y2="8.96152" gradientUnits="userSpaceOnUse">
<stop stop-color="#FFCDFA"/>
<stop offset="1" stop-color="#A8E0FD"/>
</linearGradient>
<linearGradient id="paint1_linear_66_56" x1="56.1377" y1="61.3772" x2="56.1377" y2="8.96152" gradientUnits="userSpaceOnUse">
<stop stop-color="#FFCDFA"/>
<stop offset="1" stop-color="#A8E0FD"/>
</linearGradient>
<linearGradient id="paint2_linear_66_56" x1="56.1377" y1="61.3772" x2="56.1377" y2="8.96152" gradientUnits="userSpaceOnUse">
<stop stop-color="#FFCDFA"/>
<stop offset="1" stop-color="#A8E0FD"/>
</linearGradient>
<linearGradient id="paint3_linear_66_56" x1="56.1377" y1="61.3772" x2="56.1377" y2="8.96152" gradientUnits="userSpaceOnUse">
<stop stop-color="#FFCDFA"/>
<stop offset="1" stop-color="#A8E0FD"/>
</linearGradient>
<linearGradient id="paint4_linear_66_56" x1="56.1377" y1="61.3772" x2="56.1377" y2="8.96152" gradientUnits="userSpaceOnUse">
<stop stop-color="#FFCDFA"/>
<stop offset="1" stop-color="#A8E0FD"/>
</linearGradient>
<linearGradient id="paint5_linear_66_56" x1="56.1377" y1="61.3772" x2="56.1377" y2="8.96152" gradientUnits="userSpaceOnUse">
<stop stop-color="#FFCDFA"/>
<stop offset="1" stop-color="#A8E0FD"/>
</linearGradient>
<linearGradient id="paint6_linear_66_56" x1="56.1377" y1="61.3772" x2="56.1377" y2="8.96152" gradientUnits="userSpaceOnUse">
<stop stop-color="#FFCDFA"/>
<stop offset="1" stop-color="#A8E0FD"/>
</linearGradient>
<linearGradient id="paint7_linear_66_56" x1="56.1377" y1="61.3772" x2="56.1377" y2="8.96152" gradientUnits="userSpaceOnUse">
<stop stop-color="#FFCDFA"/>
<stop offset="1" stop-color="#A8E0FD"/>
</linearGradient>
</defs>
</svg>
