<svg width="36" height="35" viewBox="0 0 36 35" fill="none" xmlns="http://www.w3.org/2000/svg">
<path d="M11.9162 20.6348C11.7407 20.6348 11.5649 20.5689 11.4333 20.4346L4.18022 13.1822C4.05113 13.0531 3.97998 12.8803 3.97998 12.6993C3.97998 12.5183 4.05112 12.3428 4.18022 12.2164L12.2174 4.17924C12.3462 4.05015 12.5192 3.979 12.7003 3.979C12.8813 3.979 13.0568 4.05014 13.1831 4.17924L20.4363 11.4317C20.7021 11.7006 20.7021 12.1313 20.4363 12.3999L12.3984 20.4371C12.2641 20.5662 12.0919 20.6346 11.9163 20.6346L11.9162 20.6348ZM5.62896 12.6961L11.9126 18.9806L18.9822 11.9117L12.6977 5.6272L5.62896 12.6961Z" fill="black"/>
<path d="M21.3878 13.3732C20.7789 13.3732 20.2059 13.1372 19.7752 12.7066L11.9047 4.83606C11.474 4.40537 11.2356 3.83215 11.2356 3.22314C11.2356 2.61419 11.474 2.04098 11.9047 1.61023L12.8485 0.66644C13.737 -0.222147 15.1856 -0.222147 16.0745 0.66644L23.9443 8.53694C24.375 8.96763 24.6139 9.54085 24.6139 10.1499C24.6139 10.7589 24.3777 11.332 23.9443 11.7628L22.998 12.7093C22.5701 13.1372 21.9969 13.3732 21.3879 13.3732L21.3878 13.3732ZM14.4644 1.36669C14.2312 1.36669 13.9977 1.45458 13.8195 1.63285L12.876 2.57635C12.7029 2.74912 12.6073 2.97682 12.6073 3.22101C12.6073 3.4652 12.7029 3.6929 12.876 3.86567L20.7465 11.7383C21.0895 12.0814 21.6902 12.0841 22.0358 11.7383L22.982 10.792C23.1548 10.6193 23.2479 10.3916 23.2479 10.1474C23.2479 9.90319 23.152 9.67549 22.982 9.50272L15.1115 1.63292C14.9305 1.45465 14.6979 1.36676 14.4647 1.36676L14.4644 1.36669Z" fill="black"/>
<path d="M10.152 24.6126C9.54302 24.6126 8.96953 24.3739 8.53884 23.9432L0.66904 16.0727C0.238353 15.642 -6.10352e-05 15.0688 -6.10352e-05 14.4598C-6.10352e-05 13.8508 0.238353 13.2777 0.66904 12.8469L1.61283 11.9031C2.4742 11.0417 3.97749 11.0417 4.83613 11.9031L12.7059 19.7736C13.1366 20.204 13.3756 20.7775 13.3756 21.3865C13.3756 21.9955 13.1394 22.5687 12.7059 22.9994L11.7624 23.9432C11.3317 24.3739 10.7585 24.6126 10.1523 24.6126H10.152ZM3.22525 12.6061C2.98106 12.6061 2.75391 12.702 2.58086 12.8723L1.63736 13.8158C1.46459 13.9885 1.37148 14.2162 1.37148 14.4604C1.37148 14.7046 1.46459 14.9323 1.63736 15.1051L9.50716 22.9777C9.85023 23.3235 10.4509 23.3235 10.7965 22.9777L11.7427 22.0342C11.9155 21.8614 12.0094 21.6337 12.0094 21.3895C12.0094 21.1453 11.9128 20.9176 11.7427 20.7449L3.87011 12.8723C3.69735 12.6992 3.46669 12.6061 3.22525 12.6061Z" fill="black"/>
<path d="M31.8502 34.9996H31.8227C31.1093 34.9914 30.4595 34.72 29.9876 34.2289L16.297 20.0004C16.0391 19.7315 16.0416 19.3063 16.305 19.0429L19.0454 16.3025C19.3088 16.0393 19.737 16.0366 20.0032 16.2942L34.231 29.9855C34.7218 30.4574 34.9962 31.1103 35.0017 31.8206C35.01 32.6328 34.6644 33.4475 34.0582 34.0565C33.4572 34.6572 32.6538 35 31.8501 35L31.8502 34.9996ZM17.7482 19.5364L30.9761 33.2797C31.2503 33.5651 31.5986 33.6283 31.8372 33.631C32.2871 33.609 32.7426 33.4363 33.0908 33.0877C33.4394 32.7367 33.6396 32.2812 33.6341 31.8341C33.6314 31.5927 33.5677 31.2471 33.2826 30.97L19.5364 17.7456L17.7482 19.5364Z" fill="black"/>
<path d="M16.1211 20.8816C15.9456 20.8816 15.7728 20.8157 15.6382 20.6814L13.4109 18.4538C13.1447 18.1879 13.1447 17.7544 13.4109 17.4855L17.4873 13.4093C17.7535 13.1432 18.1864 13.1432 18.455 13.4093L20.6827 15.6367C20.9488 15.9056 20.9488 16.336 20.6827 16.6049L16.6068 20.6814C16.4725 20.8129 16.2966 20.8816 16.1211 20.8816ZM14.862 17.9712L16.1211 19.2302L19.232 16.1193L17.973 14.8602L14.862 17.9712Z" fill="black"/>
</svg>
