<svg width="40" height="40" viewBox="0 0 40 40" fill="none" xmlns="http://www.w3.org/2000/svg">
<path d="M39.9997 19.9996C39.9997 18.9385 39.3876 18.0405 38.5303 17.5915L35.3467 15.918L38.5303 14.2445C39.3876 13.7955 39.9997 12.8975 39.9997 11.8364C39.9997 10.7752 39.3876 9.87727 38.5303 9.42829L21.2651 0.326282C20.8978 0.122427 20.4488 0 19.9999 0C19.5509 0 19.1019 0.122427 18.7346 0.326566L1.46938 9.38776C0.612097 9.87775 0 10.7757 0 11.8369C0 12.898 0.612126 13.796 1.46938 14.245L4.65304 15.9185L1.46938 17.592C0.612097 18.041 0 18.939 0 20.0001C0 21.0613 0.612126 21.9592 1.46938 22.4082L4.65304 24.0817L1.46938 25.7553C0.612097 26.245 0 27.1429 0 28.1633C0 29.2245 0.612126 30.1224 1.46938 30.5714L18.7346 39.6734C19.1019 39.8776 19.5509 40 19.9999 40C20.4488 40 20.8978 39.8776 21.2651 39.6734L38.5303 30.6122C39.3876 30.1633 39.9997 29.2653 39.9997 28.2042C39.9997 27.143 39.3876 26.2451 38.5303 25.7961L35.3467 24.0816L38.5303 22.408C39.3876 21.9591 39.9997 21.0611 39.9997 20V19.9996ZM2.28556 12.6119C1.99971 12.4487 1.79585 12.1629 1.79585 11.7956C1.79557 11.4281 2.04071 11.1832 2.32627 11.02L19.5915 1.91804C19.7139 1.83633 19.8364 1.79561 19.9998 1.79561C20.1629 1.79561 20.2856 1.83633 20.4081 1.91804L37.7141 11.02C38 11.1832 38.2038 11.469 38.2038 11.7956C38.2038 12.1222 37.9997 12.4488 37.7141 12.5712L20.4081 21.714C20.2856 21.7957 20.1632 21.8365 19.9998 21.8365C19.8366 21.8365 19.7139 21.7957 19.5915 21.714L2.28556 12.6119ZM37.714 27.3873C37.9999 27.5505 38.2037 27.8363 38.2037 28.2036C38.2037 28.5709 37.9996 28.8567 37.714 28.9792L20.4079 38.0812C20.2855 38.1629 20.1631 38.2036 19.9997 38.2036C19.8365 38.2036 19.7138 38.1629 19.5914 38.0812L2.28533 28.9792C2.04047 28.816 1.83633 28.5302 1.83633 28.1629C1.83633 27.7957 2.04047 27.5098 2.32604 27.3873L6.61181 25.1424L18.7342 31.5096C19.1015 31.7138 19.5505 31.8362 19.9994 31.8362C20.4484 31.8362 20.8974 31.7138 21.2647 31.5096L33.3871 25.1424L37.714 27.3873ZM37.6733 20.7752L20.408 29.8772C20.2856 29.9589 20.1632 29.9996 19.9998 29.9996C19.8366 29.9996 19.7139 29.9589 19.5915 29.8772L2.28543 20.816C2.04058 20.6529 1.83644 20.367 1.83644 19.9998C1.83644 19.6325 2.04058 19.3466 2.32614 19.2242L6.61192 16.9792L18.7343 23.3465C19.1016 23.5506 19.5506 23.673 19.9995 23.673C20.4485 23.673 20.8975 23.5506 21.2648 23.3465L33.3872 16.9792L37.7136 19.1834C37.9995 19.3466 38.2033 19.6324 38.2033 19.959C38.1626 20.367 37.9585 20.6528 37.6729 20.7753L37.6733 20.7752Z" fill="white"/>
</svg>
