<svg width="41" height="35" viewBox="0 0 41 35" fill="none" xmlns="http://www.w3.org/2000/svg">
<path d="M40.0836 16.0347C39.9137 16.2071 39.6304 16.3222 39.404 16.3222C39.1776 16.3222 38.8943 16.2071 38.7244 16.0347L34.7026 11.9541V27.1839C34.7026 31.4943 31.2473 35 26.9991 35C22.7509 35 19.2956 31.4943 19.2956 27.1839V7.81617C19.2956 4.59789 16.7468 2.01169 13.5748 2.01169C10.4028 2.01169 7.85395 4.59779 7.85395 7.81617V21.8391L11.9322 17.7012C12.3289 17.2987 12.9516 17.2987 13.3483 17.7012C13.745 18.1037 13.745 18.7355 13.3483 19.138L7.68402 24.8851C7.51412 25.0575 7.23082 25.1725 7.00442 25.1725H6.94792H6.89142C6.66502 25.1725 6.38172 25.0575 6.21183 24.8851L0.54752 19.138C0.150827 18.7355 0.150827 18.1037 0.54752 17.7012C0.944214 17.2987 1.56689 17.2987 1.9636 17.7012L5.92851 21.7241V7.81607C5.92851 3.50574 9.38374 0 13.632 0C17.8802 0 21.3354 3.50574 21.3354 7.81607V27.1838C21.3354 30.4021 23.8843 32.9883 27.0563 32.9883C30.2283 32.9883 32.7771 30.4022 32.7771 27.1838V11.954L28.7553 16.0346C28.5854 16.207 28.3021 16.3221 28.0757 16.3221C27.8493 16.3221 27.566 16.207 27.3961 16.0346C26.9994 15.6321 26.9994 15.0004 27.3961 14.5979L33.0604 8.85075C33.2868 8.62104 33.5701 8.56332 33.7969 8.56332C34.0801 8.56332 34.3634 8.62064 34.5333 8.85075L40.1976 14.5979C40.4802 15.0004 40.4801 15.6321 40.0835 16.0346L40.0836 16.0347Z" fill="black"/>
</svg>
