<svg width="106" height="21" viewBox="0 0 106 21" fill="none" xmlns="http://www.w3.org/2000/svg">
<path d="M8.62637 18.5186H8.46871C8.33357 18.8403 8.1684 19.1543 7.9732 19.4606C7.79302 19.7516 7.56028 20.012 7.27498 20.2418C7.0047 20.4716 6.67436 20.6554 6.28396 20.7932C5.89356 20.9311 5.4431 21 4.93257 21C3.29589 21 2.06462 20.2877 1.23877 18.8632C0.412925 17.4387 0 15.4245 0 12.8206C0 10.0941 0.472986 8.01094 1.41896 6.57112C2.36493 5.13129 3.81392 4.41138 5.76593 4.41138C6.53172 4.41138 7.1999 4.5186 7.77049 4.73304C8.35609 4.94748 8.85161 5.23851 9.25702 5.60613C9.66244 5.95842 10.0003 6.37965 10.2706 6.8698C10.5408 7.34464 10.7586 7.85011 10.9237 8.38622L8.6489 9.1674C8.52877 8.8151 8.39363 8.48578 8.24348 8.17943C8.09332 7.85777 7.90563 7.5744 7.6804 7.32932C7.47018 7.08425 7.20741 6.89278 6.89209 6.75492C6.59178 6.61707 6.2239 6.54814 5.78845 6.54814C4.69233 6.54814 3.89651 6.98468 3.401 7.85777C2.9205 8.71554 2.68026 9.87965 2.68026 11.3501V13.9004C2.68026 14.6357 2.73281 15.3096 2.83792 15.9223C2.94303 16.535 3.1157 17.0635 3.35595 17.5077C3.61121 17.9365 3.93405 18.2735 4.32445 18.5186C4.72986 18.7637 5.21787 18.8862 5.78845 18.8862C6.7044 18.8862 7.40261 18.6105 7.88311 18.0591C8.37862 17.4923 8.62637 16.7724 8.62637 15.8993V14.4519H5.58575V12.5219H10.9237V20.7243H8.62637V18.5186Z" fill="black"/>
<path d="M8.62637 18.5186H8.46871C8.33357 18.8403 8.1684 19.1543 7.9732 19.4606C7.79302 19.7516 7.56028 20.012 7.27498 20.2418C7.0047 20.4716 6.67436 20.6554 6.28396 20.7932C5.89356 20.9311 5.4431 21 4.93257 21C3.29589 21 2.06462 20.2877 1.23877 18.8632C0.412925 17.4387 0 15.4245 0 12.8206C0 10.0941 0.472986 8.01094 1.41896 6.57112C2.36493 5.13129 3.81392 4.41138 5.76593 4.41138C6.53172 4.41138 7.1999 4.5186 7.77049 4.73304C8.35609 4.94748 8.85161 5.23851 9.25702 5.60613C9.66244 5.95842 10.0003 6.37965 10.2706 6.8698C10.5408 7.34464 10.7586 7.85011 10.9237 8.38622L8.6489 9.1674C8.52877 8.8151 8.39363 8.48578 8.24348 8.17943C8.09332 7.85777 7.90563 7.5744 7.6804 7.32932C7.47018 7.08425 7.20741 6.89278 6.89209 6.75492C6.59178 6.61707 6.2239 6.54814 5.78845 6.54814C4.69233 6.54814 3.89651 6.98468 3.401 7.85777C2.9205 8.71554 2.68026 9.87965 2.68026 11.3501V13.9004C2.68026 14.6357 2.73281 15.3096 2.83792 15.9223C2.94303 16.535 3.1157 17.0635 3.35595 17.5077C3.61121 17.9365 3.93405 18.2735 4.32445 18.5186C4.72986 18.7637 5.21787 18.8862 5.78845 18.8862C6.7044 18.8862 7.40261 18.6105 7.88311 18.0591C8.37862 17.4923 8.62637 16.7724 8.62637 15.8993V14.4519H5.58575V12.5219H10.9237V20.7243H8.62637V18.5186Z" fill="white"/>
<path d="M19.2035 21C18.2124 21 17.3491 20.8162 16.6133 20.4486C15.8926 20.0656 15.2919 19.5219 14.8114 18.8173C14.346 18.1127 14.0006 17.2473 13.7754 16.221C13.5501 15.1947 13.4375 14.023 13.4375 12.7057C13.4375 11.4037 13.5501 10.2396 13.7754 9.21335C14.0006 8.17177 14.346 7.29869 14.8114 6.59409C15.2919 5.8895 15.8926 5.35339 16.6133 4.98578C17.3491 4.60284 18.2124 4.41138 19.2035 4.41138C20.1945 4.41138 21.0504 4.60284 21.7711 4.98578C22.5069 5.35339 23.1075 5.8895 23.573 6.59409C24.0534 7.29869 24.4063 8.17177 24.6315 9.21335C24.8568 10.2396 24.9694 11.4037 24.9694 12.7057C24.9694 14.023 24.8568 15.1947 24.6315 16.221C24.4063 17.2473 24.0534 18.1127 23.573 18.8173C23.1075 19.5219 22.5069 20.0656 21.7711 20.4486C21.0504 20.8162 20.1945 21 19.2035 21ZM19.2035 18.8632C20.3296 18.8632 21.1254 18.4344 21.5909 17.5766C22.0564 16.7035 22.2891 15.5241 22.2891 14.0383V11.3501C22.2891 9.87965 22.0564 8.71554 21.5909 7.85777C21.1254 6.98468 20.3296 6.54814 19.2035 6.54814C18.0773 6.54814 17.2815 6.98468 16.816 7.85777C16.3505 8.71554 16.1178 9.87965 16.1178 11.3501V14.0613C16.1178 15.5317 16.3505 16.7035 16.816 17.5766C17.2815 18.4344 18.0773 18.8632 19.2035 18.8632ZM16.9511 2.87199C16.3956 2.87199 16.0052 2.75711 15.7799 2.52735C15.5547 2.29759 15.4421 2.00657 15.4421 1.65427V1.21773C15.4421 0.865427 15.5547 0.574399 15.7799 0.34464C16.0052 0.11488 16.3956 0 16.9511 0C17.5067 0 17.8971 0.11488 18.1224 0.34464C18.3476 0.574399 18.4602 0.865427 18.4602 1.21773V1.65427C18.4602 2.00657 18.3476 2.29759 18.1224 2.52735C17.8971 2.75711 17.5067 2.87199 16.9511 2.87199ZM21.4558 2.87199C20.9002 2.87199 20.5098 2.75711 20.2846 2.52735C20.0593 2.29759 19.9467 2.00657 19.9467 1.65427V1.21773C19.9467 0.865427 20.0593 0.574399 20.2846 0.34464C20.5098 0.11488 20.9002 0 21.4558 0C22.0113 0 22.4018 0.11488 22.627 0.34464C22.8522 0.574399 22.9648 0.865427 22.9648 1.21773V1.65427C22.9648 2.00657 22.8522 2.29759 22.627 2.52735C22.4018 2.75711 22.0113 2.87199 21.4558 2.87199Z" fill="black"/>
<path d="M19.2035 21C18.2124 21 17.3491 20.8162 16.6133 20.4486C15.8926 20.0656 15.2919 19.5219 14.8114 18.8173C14.346 18.1127 14.0006 17.2473 13.7754 16.221C13.5501 15.1947 13.4375 14.023 13.4375 12.7057C13.4375 11.4037 13.5501 10.2396 13.7754 9.21335C14.0006 8.17177 14.346 7.29869 14.8114 6.59409C15.2919 5.8895 15.8926 5.35339 16.6133 4.98578C17.3491 4.60284 18.2124 4.41138 19.2035 4.41138C20.1945 4.41138 21.0504 4.60284 21.7711 4.98578C22.5069 5.35339 23.1075 5.8895 23.573 6.59409C24.0534 7.29869 24.4063 8.17177 24.6315 9.21335C24.8568 10.2396 24.9694 11.4037 24.9694 12.7057C24.9694 14.023 24.8568 15.1947 24.6315 16.221C24.4063 17.2473 24.0534 18.1127 23.573 18.8173C23.1075 19.5219 22.5069 20.0656 21.7711 20.4486C21.0504 20.8162 20.1945 21 19.2035 21ZM19.2035 18.8632C20.3296 18.8632 21.1254 18.4344 21.5909 17.5766C22.0564 16.7035 22.2891 15.5241 22.2891 14.0383V11.3501C22.2891 9.87965 22.0564 8.71554 21.5909 7.85777C21.1254 6.98468 20.3296 6.54814 19.2035 6.54814C18.0773 6.54814 17.2815 6.98468 16.816 7.85777C16.3505 8.71554 16.1178 9.87965 16.1178 11.3501V14.0613C16.1178 15.5317 16.3505 16.7035 16.816 17.5766C17.2815 18.4344 18.0773 18.8632 19.2035 18.8632ZM16.9511 2.87199C16.3956 2.87199 16.0052 2.75711 15.7799 2.52735C15.5547 2.29759 15.4421 2.00657 15.4421 1.65427V1.21773C15.4421 0.865427 15.5547 0.574399 15.7799 0.34464C16.0052 0.11488 16.3956 0 16.9511 0C17.5067 0 17.8971 0.11488 18.1224 0.34464C18.3476 0.574399 18.4602 0.865427 18.4602 1.21773V1.65427C18.4602 2.00657 18.3476 2.29759 18.1224 2.52735C17.8971 2.75711 17.5067 2.87199 16.9511 2.87199ZM21.4558 2.87199C20.9002 2.87199 20.5098 2.75711 20.2846 2.52735C20.0593 2.29759 19.9467 2.00657 19.9467 1.65427V1.21773C19.9467 0.865427 20.0593 0.574399 20.2846 0.34464C20.5098 0.11488 20.9002 0 21.4558 0C22.0113 0 22.4018 0.11488 22.627 0.34464C22.8522 0.574399 22.9648 0.865427 22.9648 1.21773V1.65427C22.9648 2.00657 22.8522 2.29759 22.627 2.52735C22.4018 2.75711 22.0113 2.87199 21.4558 2.87199Z" fill="white"/>
<path d="M30.3436 20.7243H27.8436V4.68709H33.7221C35.2236 4.68709 36.3648 5.11597 37.1456 5.97374C37.9414 6.83151 38.3394 8.01094 38.3394 9.51204C38.3394 10.7374 38.0466 11.7484 37.461 12.5449C36.8754 13.3414 36.0345 13.8315 34.9384 14.0153L38.5646 20.7243H35.7717L32.4383 14.2451H30.3436V20.7243ZM33.3617 12.1772C34.9233 12.1772 35.7041 11.4497 35.7041 9.99453V9.00657C35.7041 7.55142 34.9233 6.82385 33.3617 6.82385H30.3436V12.1772H33.3617Z" fill="black"/>
<path d="M30.3436 20.7243H27.8436V4.68709H33.7221C35.2236 4.68709 36.3648 5.11597 37.1456 5.97374C37.9414 6.83151 38.3394 8.01094 38.3394 9.51204C38.3394 10.7374 38.0466 11.7484 37.461 12.5449C36.8754 13.3414 36.0345 13.8315 34.9384 14.0153L38.5646 20.7243H35.7717L32.4383 14.2451H30.3436V20.7243ZM33.3617 12.1772C34.9233 12.1772 35.7041 11.4497 35.7041 9.99453V9.00657C35.7041 7.55142 34.9233 6.82385 33.3617 6.82385H30.3436V12.1772H33.3617Z" fill="white"/>
<path d="M41.8892 20.7243V4.68709H44.4118V18.5646H51.5742V20.7243H41.8892Z" fill="black"/>
<path d="M41.8892 20.7243V4.68709H44.4118V18.5646H51.5742V20.7243H41.8892Z" fill="white"/>
<path d="M54.7637 20.7243V18.7713H58.4575V6.64004H54.7637V4.68709H64.6739V6.64004H60.9801V18.7713H64.6739V20.7243H54.7637Z" fill="black"/>
<path d="M54.7637 20.7243V18.7713H58.4575V6.64004H54.7637V4.68709H64.6739V6.64004H60.9801V18.7713H64.6739V20.7243H54.7637Z" fill="white"/>
<path d="M68.3138 4.68709H72.9986C75.0107 4.68709 76.4972 5.36871 77.4582 6.73195C78.4342 8.09519 78.9222 10.0864 78.9222 12.7057C78.9222 15.3249 78.4342 17.3162 77.4582 18.6794C76.4972 20.0427 75.0107 20.7243 72.9986 20.7243H68.3138V4.68709ZM72.841 18.6105C73.9972 18.6105 74.853 18.2199 75.4086 17.4387C75.9792 16.6422 76.2645 15.5088 76.2645 14.0383V11.3731C76.2645 9.90263 75.9792 8.77681 75.4086 7.99562C74.853 7.19913 73.9972 6.80088 72.841 6.80088H70.8139V18.6105H72.841Z" fill="black"/>
<path d="M68.3138 4.68709H72.9986C75.0107 4.68709 76.4972 5.36871 77.4582 6.73195C78.4342 8.09519 78.9222 10.0864 78.9222 12.7057C78.9222 15.3249 78.4342 17.3162 77.4582 18.6794C76.4972 20.0427 75.0107 20.7243 72.9986 20.7243H68.3138V4.68709ZM72.841 18.6105C73.9972 18.6105 74.853 18.2199 75.4086 17.4387C75.9792 16.6422 76.2645 15.5088 76.2645 14.0383V11.3731C76.2645 9.90263 75.9792 8.77681 75.4086 7.99562C74.853 7.19913 73.9972 6.80088 72.841 6.80088H70.8139V18.6105H72.841Z" fill="white"/>
<path d="M90.3777 20.7243L89.184 16.4508H84.1838L82.9901 20.7243H80.4225L85.0172 4.68709H88.4632L93.058 20.7243H90.3777ZM86.774 7.28337H86.5938L84.6568 14.314H88.711L86.774 7.28337Z" fill="black"/>
<path d="M90.3777 20.7243L89.184 16.4508H84.1838L82.9901 20.7243H80.4225L85.0172 4.68709H88.4632L93.058 20.7243H90.3777ZM86.774 7.28337H86.5938L84.6568 14.314H88.711L86.774 7.28337Z" fill="white"/>
<path d="M100.234 21C99.243 21 98.3797 20.8162 97.6439 20.4486C96.9232 20.0656 96.3225 19.5219 95.842 18.8173C95.3766 18.1127 95.0312 17.2473 94.806 16.221C94.5807 15.1947 94.4681 14.023 94.4681 12.7057C94.4681 11.4037 94.5807 10.2396 94.806 9.21335C95.0312 8.17177 95.3766 7.29869 95.842 6.59409C96.3225 5.8895 96.9232 5.35339 97.6439 4.98578C98.3797 4.60284 99.243 4.41138 100.234 4.41138C101.225 4.41138 102.081 4.60284 102.802 4.98578C103.537 5.35339 104.138 5.8895 104.604 6.59409C105.084 7.29869 105.437 8.17177 105.662 9.21335C105.887 10.2396 106 11.4037 106 12.7057C106 14.023 105.887 15.1947 105.662 16.221C105.437 17.2473 105.084 18.1127 104.604 18.8173C104.138 19.5219 103.537 20.0656 102.802 20.4486C102.081 20.8162 101.225 21 100.234 21ZM100.234 18.8632C101.36 18.8632 102.156 18.4344 102.622 17.5766C103.087 16.7035 103.32 15.5241 103.32 14.0383V11.3501C103.32 9.87965 103.087 8.71554 102.622 7.85777C102.156 6.98468 101.36 6.54814 100.234 6.54814C99.1079 6.54814 98.3121 6.98468 97.8466 7.85777C97.3811 8.71554 97.1484 9.87965 97.1484 11.3501V14.0613C97.1484 15.5317 97.3811 16.7035 97.8466 17.5766C98.3121 18.4344 99.1079 18.8632 100.234 18.8632Z" fill="black"/>
<path d="M100.234 21C99.243 21 98.3797 20.8162 97.6439 20.4486C96.9232 20.0656 96.3225 19.5219 95.842 18.8173C95.3766 18.1127 95.0312 17.2473 94.806 16.221C94.5807 15.1947 94.4681 14.023 94.4681 12.7057C94.4681 11.4037 94.5807 10.2396 94.806 9.21335C95.0312 8.17177 95.3766 7.29869 95.842 6.59409C96.3225 5.8895 96.9232 5.35339 97.6439 4.98578C98.3797 4.60284 99.243 4.41138 100.234 4.41138C101.225 4.41138 102.081 4.60284 102.802 4.98578C103.537 5.35339 104.138 5.8895 104.604 6.59409C105.084 7.29869 105.437 8.17177 105.662 9.21335C105.887 10.2396 106 11.4037 106 12.7057C106 14.023 105.887 15.1947 105.662 16.221C105.437 17.2473 105.084 18.1127 104.604 18.8173C104.138 19.5219 103.537 20.0656 102.802 20.4486C102.081 20.8162 101.225 21 100.234 21ZM100.234 18.8632C101.36 18.8632 102.156 18.4344 102.622 17.5766C103.087 16.7035 103.32 15.5241 103.32 14.0383V11.3501C103.32 9.87965 103.087 8.71554 102.622 7.85777C102.156 6.98468 101.36 6.54814 100.234 6.54814C99.1079 6.54814 98.3121 6.98468 97.8466 7.85777C97.3811 8.71554 97.1484 9.87965 97.1484 11.3501V14.0613C97.1484 15.5317 97.3811 16.7035 97.8466 17.5766C98.3121 18.4344 99.1079 18.8632 100.234 18.8632Z" fill="white"/>
</svg>
