<svg width="41" height="40" viewBox="0 0 41 40" fill="none" xmlns="http://www.w3.org/2000/svg">
<path d="M38.8471 0.0138628H34.8685C34.8685 0.0138628 39.2056 12.8488 28.5808 12.8488C28.5808 12.8488 27.1608 0 20.3522 0H20.3067C13.4981 0 12.0781 12.8488 12.0781 12.8488C1.44937 12.8488 5.78644 0.0138628 5.78644 0.0138628H1.80782C1.80782 0.0138628 -5.3315 17.7008 8.76495 23.4994L4.46947 40H13.4704L14.4031 36.562H26.2558L27.1886 40H36.1894L31.894 23.4994C45.9865 17.7008 38.8471 0.0138628 38.8471 0.0138628ZM20.6414 5.58669C20.6414 5.40648 20.7008 5.25597 20.8196 5.13714C20.9404 5.01634 21.1285 4.95891 21.3959 4.95891C21.6633 4.95891 21.8514 5.01634 21.9722 5.13714C22.091 5.25597 22.1504 5.40648 22.1504 5.58669V5.7471C22.1504 5.92732 22.091 6.07783 21.9722 6.19665C21.8514 6.31746 21.6633 6.37489 21.3959 6.37489C21.1285 6.37489 20.9404 6.31746 20.8196 6.19665C20.6988 6.07585 20.6414 5.92732 20.6414 5.7471V5.58669ZM18.5045 5.58669C18.5045 5.40648 18.5639 5.25597 18.6828 5.13714C18.8036 5.01634 18.9917 4.95891 19.2591 4.95891C19.5264 4.95891 19.7146 5.01634 19.8354 5.13714C19.9542 5.25597 20.0136 5.40648 20.0136 5.58669V5.7471C20.0136 5.92732 19.9542 6.07783 19.8354 6.19665C19.7165 6.31548 19.5264 6.37489 19.2591 6.37489C18.9917 6.37489 18.8036 6.31746 18.6828 6.19665C18.562 6.07585 18.5045 5.92732 18.5045 5.7471V5.58669ZM17.7282 9.10783C17.855 8.71373 18.0391 8.37311 18.2768 8.09783C18.5224 7.81265 18.8214 7.59085 19.162 7.44034C19.5106 7.28983 19.9027 7.21458 20.3285 7.21458C20.7543 7.21458 21.1424 7.28983 21.483 7.44034C21.8316 7.59085 22.1306 7.81265 22.3703 8.09981C22.6138 8.37509 22.802 8.71571 22.9287 9.10981C23.0535 9.49995 23.1169 9.9396 23.1169 10.4149C23.1169 10.8902 23.0535 11.3417 22.9287 11.7319C22.802 12.118 22.6138 12.4587 22.3703 12.7438C22.1326 13.0211 21.8336 13.2389 21.485 13.3914C21.1444 13.5419 20.7562 13.6172 20.3305 13.6172C19.9047 13.6172 19.5125 13.5419 19.166 13.3914C18.8234 13.2409 18.5263 13.0231 18.2807 12.7458C18.0411 12.4606 17.8589 12.12 17.7322 11.7338C17.6074 11.3417 17.544 10.9001 17.544 10.4169C17.544 9.93366 17.6074 9.50193 17.7322 9.11179L17.7282 9.10783ZM24.5903 25.5293L20.4889 31.3041C20.4097 31.415 20.2433 31.415 20.1641 31.3041L16.0667 25.5293C15.9419 25.355 16.1459 25.1332 16.3301 25.2441L20.2255 27.5453C20.2869 27.5829 20.3661 27.5829 20.4275 27.5453L24.3269 25.2441C24.5111 25.1352 24.715 25.355 24.5903 25.5293ZM24.9547 23.9608L20.4295 26.6363C20.3681 26.6739 20.2889 26.6739 20.2275 26.6363L15.7023 23.9608C15.6072 23.9053 15.5755 23.7826 15.633 23.6875L20.1582 16.1778C20.2354 16.0491 20.4215 16.0491 20.4988 16.1778L25.024 23.6875C25.0814 23.7826 25.0497 23.9053 24.9547 23.9608Z" fill="black"/>
</svg>
